<mxfile host="app.diagrams.net" compressed="false" modified="2022-05-31T05:36:32.470Z" agent="5.0 (Windows NT 10.0; Win64; x64) AppleWebKit/537.36 (KHTML, like Gecko) Chrome/102.0.5005.63 Safari/537.36" version="17.5.0" etag="ZPKXOdm_X3M5-VoYtXqd" type="device">
  <diagram id="86R6ZRfhnQo9sD8B5-7s" name="Page-1">
    <mxGraphModel dx="1371" dy="1006" grid="1" gridSize="10" guides="1" tooltips="1" connect="1" arrows="1" fold="1" page="1" pageScale="1" pageWidth="827" pageHeight="1169" background="#161923" math="0" shadow="0">
      <root>
        <mxCell id="0" />
        <mxCell id="1" parent="0" />
        <mxCell id="141" value="" style="rounded=0;whiteSpace=wrap;html=1;labelBackgroundColor=none;fontSize=14;fontColor=#BCBDD0;strokeColor=#bcbdd0;strokeWidth=2;fillColor=none;dashed=1;" parent="1" vertex="1">
          <mxGeometry x="280" y="400" width="660" height="438.74" as="geometry" />
        </mxCell>
        <mxCell id="97" style="edgeStyle=none;html=1;exitX=0.5;exitY=1;exitDx=0;exitDy=0;entryX=0;entryY=0.25;entryDx=0;entryDy=0;rounded=0;strokeWidth=3;strokeColor=#BCBDD0;fontSize=14;" parent="1" source="92" target="93" edge="1">
          <mxGeometry relative="1" as="geometry">
            <Array as="points">
              <mxPoint x="620" y="738.74" />
            </Array>
          </mxGeometry>
        </mxCell>
        <mxCell id="92" value="Multiplier" style="rounded=0;whiteSpace=wrap;html=1;fontFamily=Helvetica;fontSize=14;fontColor=#BCBDD0;strokeColor=#BCBDD0;strokeWidth=3;fillColor=none;" parent="1" vertex="1">
          <mxGeometry x="560" y="598.74" width="120" height="80" as="geometry" />
        </mxCell>
        <mxCell id="93" value="&lt;font style=&quot;font-size: 14px;&quot;&gt;Buffer&lt;br style=&quot;font-size: 14px;&quot;&gt;&lt;/font&gt;" style="rounded=0;whiteSpace=wrap;html=1;fontColor=#BCBDD0;labelBackgroundColor=none;fillColor=none;strokeColor=#bcbdd0;strokeWidth=3;fontSize=14;" parent="1" vertex="1">
          <mxGeometry x="800.32" y="718.74" width="120" height="80" as="geometry" />
        </mxCell>
        <mxCell id="98" style="edgeStyle=none;html=1;exitX=0.5;exitY=1;exitDx=0;exitDy=0;entryX=0.5;entryY=0;entryDx=0;entryDy=0;strokeWidth=3;strokeColor=#BCBDD0;fontSize=14;" parent="1" source="94" target="92" edge="1">
          <mxGeometry relative="1" as="geometry" />
        </mxCell>
        <mxCell id="94" value="Sampler" style="rounded=0;whiteSpace=wrap;html=1;fontFamily=Helvetica;fontSize=14;fontColor=#BCBDD0;strokeColor=#BCBDD0;strokeWidth=3;fillColor=none;" parent="1" vertex="1">
          <mxGeometry x="560" y="420" width="120" height="98.74" as="geometry" />
        </mxCell>
        <mxCell id="95" value="Memory" style="rounded=0;whiteSpace=wrap;html=1;fontFamily=Helvetica;fontSize=14;fontColor=#BCBDD0;strokeColor=#BCBDD0;strokeWidth=3;fillColor=none;" parent="1" vertex="1">
          <mxGeometry x="320.32000000000005" y="518.74" width="120" height="80" as="geometry" />
        </mxCell>
        <mxCell id="109" value="" style="endArrow=classic;html=1;rounded=0;labelBackgroundColor=default;fontFamily=Helvetica;fontSize=14;fontColor=#BCBDD0;strokeColor=#BCBDD0;strokeWidth=3;shape=connector;entryX=0;entryY=0.75;entryDx=0;entryDy=0;exitX=1;exitY=0.5;exitDx=0;exitDy=0;" parent="1" source="132" target="93" edge="1">
          <mxGeometry width="50" height="50" relative="1" as="geometry">
            <mxPoint x="240" y="778.74" as="sourcePoint" />
            <mxPoint x="735" y="768.94" as="targetPoint" />
          </mxGeometry>
        </mxCell>
        <mxCell id="110" value="" style="endArrow=classic;html=1;rounded=0;labelBackgroundColor=default;fontFamily=Helvetica;fontSize=14;fontColor=#BCBDD0;strokeColor=#BCBDD0;strokeWidth=3;shape=connector;entryX=0;entryY=0.5;entryDx=0;entryDy=0;exitX=1;exitY=0.5;exitDx=0;exitDy=0;" parent="1" source="130" target="92" edge="1">
          <mxGeometry width="50" height="50" relative="1" as="geometry">
            <mxPoint x="240" y="638.74" as="sourcePoint" />
            <mxPoint x="560" y="627.74" as="targetPoint" />
          </mxGeometry>
        </mxCell>
        <mxCell id="111" value="&lt;span style=&quot;font-size: 14px;&quot;&gt;SYS_TIME&lt;/span&gt;" style="text;html=1;strokeColor=none;fillColor=none;align=center;verticalAlign=middle;whiteSpace=wrap;rounded=0;labelBackgroundColor=none;fontSize=14;fontColor=#BCBDD0;fontStyle=2" parent="1" vertex="1">
          <mxGeometry x="160" y="420" width="80" height="40" as="geometry" />
        </mxCell>
        <mxCell id="112" value="" style="endArrow=classic;html=1;rounded=0;fontSize=14;fontColor=#BCBDD0;strokeColor=#bcbdd0;strokeWidth=3;exitX=1;exitY=0.5;exitDx=0;exitDy=0;entryX=0;entryY=0.203;entryDx=0;entryDy=0;entryPerimeter=0;" parent="1" source="111" target="94" edge="1">
          <mxGeometry width="50" height="50" relative="1" as="geometry">
            <mxPoint x="260" y="658.74" as="sourcePoint" />
            <mxPoint x="270" y="388.74" as="targetPoint" />
          </mxGeometry>
        </mxCell>
        <mxCell id="113" value="&lt;span style=&quot;font-size: 14px;&quot;&gt;CYCLE_M&lt;/span&gt;" style="text;html=1;strokeColor=none;fillColor=none;align=center;verticalAlign=middle;whiteSpace=wrap;rounded=0;labelBackgroundColor=none;fontSize=14;fontColor=#BCBDD0;fontStyle=2" parent="1" vertex="1">
          <mxGeometry x="160.5" y="440" width="79.5" height="40" as="geometry" />
        </mxCell>
        <mxCell id="119" value="" style="endArrow=classic;html=1;rounded=0;fontSize=14;fontColor=#BCBDD0;entryX=0.004;entryY=0.404;entryDx=0;entryDy=0;strokeColor=#bcbdd0;strokeWidth=3;exitX=1;exitY=0.5;exitDx=0;exitDy=0;entryPerimeter=0;" parent="1" source="113" target="94" edge="1">
          <mxGeometry width="50" height="50" relative="1" as="geometry">
            <mxPoint x="259.5000000000002" y="318.74" as="sourcePoint" />
            <mxPoint x="570" y="318.74" as="targetPoint" />
          </mxGeometry>
        </mxCell>
        <mxCell id="120" value="" style="shape=flexArrow;endArrow=classic;html=1;rounded=0;labelBackgroundColor=default;fontFamily=Helvetica;fontSize=14;fontColor=#BCBDD0;strokeColor=#BCBDD0;strokeWidth=3;jumpStyle=arc;entryX=0;entryY=0.5;entryDx=0;entryDy=0;fillColor=#BCBDD0;exitX=1;exitY=0.5;exitDx=0;exitDy=0;" parent="1" source="129" target="95" edge="1">
          <mxGeometry width="50" height="50" relative="1" as="geometry">
            <mxPoint x="380" y="448.74" as="sourcePoint" />
            <mxPoint x="320.32000000000005" y="558.74" as="targetPoint" />
          </mxGeometry>
        </mxCell>
        <mxCell id="121" value="&lt;i style=&quot;font-size: 14px;&quot;&gt;M&lt;/i&gt;" style="text;html=1;strokeColor=none;fillColor=none;align=center;verticalAlign=middle;whiteSpace=wrap;rounded=0;labelBackgroundColor=none;fontSize=14;fontColor=#BCBDD0;" parent="1" vertex="1">
          <mxGeometry x="620.32" y="548.74" width="19.68" height="20" as="geometry" />
        </mxCell>
        <mxCell id="125" value="" style="shape=flexArrow;endArrow=classic;html=1;rounded=0;labelBackgroundColor=default;fontFamily=Helvetica;fontSize=14;fontColor=#BCBDD0;strokeColor=#BCBDD0;strokeWidth=1;jumpStyle=arc;entryX=0.25;entryY=1;entryDx=0;entryDy=0;fillColor=#BCBDD0;exitX=1;exitY=0.5;exitDx=0;exitDy=0;startArrow=block;endSize=6;" parent="1" source="95" target="94" edge="1">
          <mxGeometry width="50" height="50" relative="1" as="geometry">
            <mxPoint x="250" y="568.74" as="sourcePoint" />
            <mxPoint x="330.32000000000016" y="568.74" as="targetPoint" />
            <Array as="points">
              <mxPoint x="590" y="559" />
            </Array>
          </mxGeometry>
        </mxCell>
        <mxCell id="127" value="&lt;i style=&quot;font-size: 14px&quot;&gt;Addr/M&lt;/i&gt;" style="text;html=1;strokeColor=none;fillColor=none;align=center;verticalAlign=middle;whiteSpace=wrap;rounded=0;labelBackgroundColor=none;fontSize=14;fontColor=#BCBDD0;" parent="1" vertex="1">
          <mxGeometry x="490.00000000000006" y="530" width="49.68" height="20" as="geometry" />
        </mxCell>
        <mxCell id="128" value="&lt;i style=&quot;font-size: 14px;&quot;&gt;DUTY_M&lt;/i&gt;" style="text;html=1;strokeColor=none;fillColor=none;align=center;verticalAlign=middle;whiteSpace=wrap;rounded=0;labelBackgroundColor=none;fontSize=14;fontColor=#BCBDD0;" parent="1" vertex="1">
          <mxGeometry x="620.32" y="710" width="69.68" height="28.74" as="geometry" />
        </mxCell>
        <mxCell id="129" value="&lt;i style=&quot;font-size: 14px;&quot;&gt;CPU_BUS&lt;/i&gt;" style="text;html=1;strokeColor=none;fillColor=none;align=center;verticalAlign=middle;whiteSpace=wrap;rounded=0;labelBackgroundColor=none;fontSize=14;fontColor=#BCBDD0;" parent="1" vertex="1">
          <mxGeometry x="160" y="538.74" width="79.5" height="40" as="geometry" />
        </mxCell>
        <mxCell id="130" value="&lt;i style=&quot;font-size: 14px;&quot;&gt;DUTY&lt;/i&gt;" style="text;html=1;strokeColor=none;fillColor=none;align=center;verticalAlign=middle;whiteSpace=wrap;rounded=0;labelBackgroundColor=none;fontSize=14;fontColor=#BCBDD0;" parent="1" vertex="1">
          <mxGeometry x="190" y="618.74" width="49.5" height="40" as="geometry" />
        </mxCell>
        <mxCell id="132" value="&lt;i style=&quot;font-size: 14px;&quot;&gt;PHASE&lt;/i&gt;" style="text;html=1;strokeColor=none;fillColor=none;align=center;verticalAlign=middle;whiteSpace=wrap;rounded=0;labelBackgroundColor=none;fontSize=14;fontColor=#BCBDD0;" parent="1" vertex="1">
          <mxGeometry x="180" y="758.74" width="60" height="40" as="geometry" />
        </mxCell>
        <mxCell id="133" value="" style="endArrow=none;html=1;rounded=1;labelBackgroundColor=default;fontFamily=Helvetica;fontSize=14;fontColor=#BCBDD0;strokeColor=#BCBDD0;strokeWidth=3;shape=connector;" parent="1" edge="1">
          <mxGeometry width="50" height="50" relative="1" as="geometry">
            <mxPoint x="249.68" y="648.74" as="sourcePoint" />
            <mxPoint x="269.68" y="628.74" as="targetPoint" />
          </mxGeometry>
        </mxCell>
        <mxCell id="135" value="" style="endArrow=none;html=1;rounded=1;labelBackgroundColor=default;fontFamily=Helvetica;fontSize=14;fontColor=#BCBDD0;strokeColor=#BCBDD0;strokeWidth=3;shape=connector;" parent="1" edge="1">
          <mxGeometry width="50" height="50" relative="1" as="geometry">
            <mxPoint x="249.68000000000006" y="788.74" as="sourcePoint" />
            <mxPoint x="269.68000000000006" y="768.74" as="targetPoint" />
          </mxGeometry>
        </mxCell>
        <mxCell id="136" value="" style="endArrow=none;html=1;rounded=1;labelBackgroundColor=default;fontFamily=Helvetica;fontSize=14;fontColor=#BCBDD0;strokeColor=#BCBDD0;strokeWidth=3;shape=connector;" parent="1" edge="1">
          <mxGeometry width="50" height="50" relative="1" as="geometry">
            <mxPoint x="750" y="748.74" as="sourcePoint" />
            <mxPoint x="770" y="728.74" as="targetPoint" />
          </mxGeometry>
        </mxCell>
        <mxCell id="137" value="" style="endArrow=none;html=1;rounded=1;labelBackgroundColor=default;fontFamily=Helvetica;fontSize=14;fontColor=#BCBDD0;strokeColor=#BCBDD0;strokeWidth=3;shape=connector;" parent="1" edge="1">
          <mxGeometry width="50" height="50" relative="1" as="geometry">
            <mxPoint x="960" y="748.74" as="sourcePoint" />
            <mxPoint x="980" y="728.74" as="targetPoint" />
          </mxGeometry>
        </mxCell>
        <mxCell id="138" value="" style="endArrow=classic;html=1;rounded=0;labelBackgroundColor=default;fontFamily=Helvetica;fontSize=14;fontColor=#BCBDD0;strokeColor=#BCBDD0;strokeWidth=3;shape=connector;exitX=1;exitY=0.75;exitDx=0;exitDy=0;entryX=0;entryY=0.5;entryDx=0;entryDy=0;" parent="1" source="93" target="142" edge="1">
          <mxGeometry width="50" height="50" relative="1" as="geometry">
            <mxPoint x="250" y="788.74" as="sourcePoint" />
            <mxPoint x="1000" y="778.74" as="targetPoint" />
          </mxGeometry>
        </mxCell>
        <mxCell id="139" value="" style="endArrow=classic;html=1;rounded=0;labelBackgroundColor=default;fontFamily=Helvetica;fontSize=14;fontColor=#BCBDD0;strokeColor=#BCBDD0;strokeWidth=3;shape=connector;exitX=1;exitY=0.25;exitDx=0;exitDy=0;entryX=0;entryY=0.5;entryDx=0;entryDy=0;" parent="1" source="93" target="143" edge="1">
          <mxGeometry width="50" height="50" relative="1" as="geometry">
            <mxPoint x="930.3200000000002" y="788.74" as="sourcePoint" />
            <mxPoint x="1000" y="738.74" as="targetPoint" />
          </mxGeometry>
        </mxCell>
        <mxCell id="140" value="" style="endArrow=none;html=1;rounded=1;labelBackgroundColor=default;fontFamily=Helvetica;fontSize=14;fontColor=#BCBDD0;strokeColor=#BCBDD0;strokeWidth=3;shape=connector;" parent="1" edge="1">
          <mxGeometry width="50" height="50" relative="1" as="geometry">
            <mxPoint x="960" y="788.74" as="sourcePoint" />
            <mxPoint x="980" y="768.74" as="targetPoint" />
          </mxGeometry>
        </mxCell>
        <mxCell id="142" value="&lt;i style=&quot;font-size: 14px;&quot;&gt;PHASE&lt;/i&gt;" style="text;html=1;strokeColor=none;fillColor=none;align=center;verticalAlign=middle;whiteSpace=wrap;rounded=0;labelBackgroundColor=none;fontSize=14;fontColor=#BCBDD0;" parent="1" vertex="1">
          <mxGeometry x="1000" y="758.74" width="50" height="40" as="geometry" />
        </mxCell>
        <mxCell id="143" value="&lt;i style=&quot;font-size: 14px;&quot;&gt;DUTY_M&lt;/i&gt;" style="text;html=1;strokeColor=none;fillColor=none;align=center;verticalAlign=middle;whiteSpace=wrap;rounded=0;labelBackgroundColor=none;fontSize=14;fontColor=#BCBDD0;" parent="1" vertex="1">
          <mxGeometry x="1000" y="718.74" width="60" height="40" as="geometry" />
        </mxCell>
        <mxCell id="145" value="CLK" style="text;html=1;strokeColor=none;fillColor=none;align=center;verticalAlign=middle;whiteSpace=wrap;rounded=0;labelBackgroundColor=none;fontSize=14;fontColor=#BCBDD0;fontStyle=2" parent="1" vertex="1">
          <mxGeometry x="280" y="351.26" width="60" height="20" as="geometry" />
        </mxCell>
        <mxCell id="146" value="" style="endArrow=classic;html=1;rounded=0;fontSize=14;fontColor=#BCBDD0;strokeColor=#bcbdd0;strokeWidth=3;entryX=0.093;entryY=-0.003;entryDx=0;entryDy=0;exitX=0.5;exitY=1;exitDx=0;exitDy=0;entryPerimeter=0;" parent="1" source="145" edge="1">
          <mxGeometry width="50" height="50" relative="1" as="geometry">
            <mxPoint x="370" y="641.26" as="sourcePoint" />
            <mxPoint x="309.52" y="400" as="targetPoint" />
          </mxGeometry>
        </mxCell>
        <mxCell id="150" style="edgeStyle=none;html=1;exitX=0.75;exitY=1;exitDx=0;exitDy=0;entryX=0.75;entryY=0;entryDx=0;entryDy=0;strokeWidth=3;strokeColor=#BCBDD0;fontSize=14;" parent="1" source="94" target="92" edge="1">
          <mxGeometry relative="1" as="geometry">
            <mxPoint x="644.84" y="518.74" as="sourcePoint" />
            <mxPoint x="644.84" y="598.74" as="targetPoint" />
          </mxGeometry>
        </mxCell>
        <mxCell id="151" value="&lt;i style=&quot;font-size: 14px;&quot;&gt;START&lt;/i&gt;" style="text;html=1;strokeColor=none;fillColor=none;align=center;verticalAlign=middle;whiteSpace=wrap;rounded=0;labelBackgroundColor=none;fontSize=14;fontColor=#BCBDD0;" parent="1" vertex="1">
          <mxGeometry x="650" y="530" width="60" height="28.74" as="geometry" />
        </mxCell>
        <mxCell id="152" style="edgeStyle=none;html=1;exitX=1;exitY=0.5;exitDx=0;exitDy=0;entryX=0.25;entryY=0;entryDx=0;entryDy=0;strokeWidth=3;strokeColor=#BCBDD0;rounded=0;fontSize=14;" parent="1" source="92" target="93" edge="1">
          <mxGeometry relative="1" as="geometry">
            <mxPoint x="660" y="528.74" as="sourcePoint" />
            <mxPoint x="660" y="608.74" as="targetPoint" />
            <Array as="points">
              <mxPoint x="830" y="639" />
            </Array>
          </mxGeometry>
        </mxCell>
        <mxCell id="153" value="&lt;i style=&quot;font-size: 14px;&quot;&gt;DONE&lt;/i&gt;" style="text;html=1;strokeColor=none;fillColor=none;align=center;verticalAlign=middle;whiteSpace=wrap;rounded=0;labelBackgroundColor=none;fontSize=14;fontColor=#BCBDD0;" parent="1" vertex="1">
          <mxGeometry x="730" y="610" width="59.68" height="28.74" as="geometry" />
        </mxCell>
        <mxCell id="154" style="edgeStyle=none;html=1;exitX=0.75;exitY=1;exitDx=0;exitDy=0;entryX=0.75;entryY=0;entryDx=0;entryDy=0;strokeWidth=3;strokeColor=#BCBDD0;rounded=0;fontSize=14;" parent="1" source="94" target="93" edge="1">
          <mxGeometry relative="1" as="geometry">
            <mxPoint x="660" y="528.74" as="sourcePoint" />
            <mxPoint x="660" y="608.74" as="targetPoint" />
            <Array as="points">
              <mxPoint x="650" y="560" />
              <mxPoint x="890" y="560" />
            </Array>
          </mxGeometry>
        </mxCell>
        <mxCell id="155" value="&lt;span style=&quot;font-size: 14px&quot;&gt;FREQ_DIV_M&lt;/span&gt;" style="text;html=1;strokeColor=none;fillColor=none;align=center;verticalAlign=middle;whiteSpace=wrap;rounded=0;labelBackgroundColor=none;fontSize=14;fontColor=#BCBDD0;fontStyle=2" parent="1" vertex="1">
          <mxGeometry x="140" y="460" width="100" height="40" as="geometry" />
        </mxCell>
        <mxCell id="156" value="" style="endArrow=classic;html=1;rounded=0;fontSize=14;fontColor=#BCBDD0;entryX=0.003;entryY=0.598;entryDx=0;entryDy=0;strokeColor=#bcbdd0;strokeWidth=3;exitX=1;exitY=0.5;exitDx=0;exitDy=0;entryPerimeter=0;" parent="1" source="155" target="94" edge="1">
          <mxGeometry width="50" height="50" relative="1" as="geometry">
            <mxPoint x="249.5" y="488.74" as="sourcePoint" />
            <mxPoint x="570" y="488.74" as="targetPoint" />
          </mxGeometry>
        </mxCell>
        <mxCell id="157" style="edgeStyle=none;html=1;exitX=0.75;exitY=1;exitDx=0;exitDy=0;strokeWidth=3;strokeColor=#BCBDD0;rounded=0;fontSize=14;" parent="1" edge="1">
          <mxGeometry relative="1" as="geometry">
            <mxPoint x="650" y="518.74" as="sourcePoint" />
            <mxPoint x="1000" y="560" as="targetPoint" />
            <Array as="points">
              <mxPoint x="650" y="560" />
              <mxPoint x="890" y="560" />
            </Array>
          </mxGeometry>
        </mxCell>
        <mxCell id="158" value="&lt;i style=&quot;font-size: 14px;&quot;&gt;START&lt;/i&gt;" style="text;html=1;strokeColor=none;fillColor=none;align=center;verticalAlign=middle;whiteSpace=wrap;rounded=0;labelBackgroundColor=none;fontSize=14;fontColor=#BCBDD0;" parent="1" vertex="1">
          <mxGeometry x="1000" y="544.37" width="50" height="28.74" as="geometry" />
        </mxCell>
        <mxCell id="159" style="edgeStyle=none;html=1;exitX=1;exitY=0.5;exitDx=0;exitDy=0;strokeWidth=3;strokeColor=#BCBDD0;rounded=0;fontSize=14;jumpStyle=arc;" parent="1" edge="1">
          <mxGeometry relative="1" as="geometry">
            <mxPoint x="680" y="638.74" as="sourcePoint" />
            <mxPoint x="1000" y="639" as="targetPoint" />
            <Array as="points">
              <mxPoint x="830" y="639" />
            </Array>
          </mxGeometry>
        </mxCell>
        <mxCell id="161" value="&lt;i style=&quot;font-size: 14px;&quot;&gt;DONE&lt;/i&gt;" style="text;html=1;strokeColor=none;fillColor=none;align=center;verticalAlign=middle;whiteSpace=wrap;rounded=0;labelBackgroundColor=none;fontSize=14;fontColor=#BCBDD0;" parent="1" vertex="1">
          <mxGeometry x="1000" y="624.37" width="50" height="28.74" as="geometry" />
        </mxCell>
        <mxCell id="165" value="" style="endArrow=classic;html=1;rounded=0;labelBackgroundColor=default;fontFamily=Helvetica;fontSize=14;fontColor=#BCBDD0;strokeColor=#BCBDD0;strokeWidth=3;shape=connector;exitX=1;exitY=0.5;exitDx=0;exitDy=0;entryX=0;entryY=0.5;entryDx=0;entryDy=0;" parent="1" source="94" edge="1" target="166">
          <mxGeometry width="50" height="50" relative="1" as="geometry">
            <mxPoint x="250" y="788.7399999999998" as="sourcePoint" />
            <mxPoint x="1000" y="479" as="targetPoint" />
          </mxGeometry>
        </mxCell>
        <mxCell id="166" value="&lt;i style=&quot;font-size: 14px&quot;&gt;IDX&lt;/i&gt;" style="text;html=1;strokeColor=none;fillColor=none;align=center;verticalAlign=middle;whiteSpace=wrap;rounded=0;labelBackgroundColor=none;fontSize=14;fontColor=#BCBDD0;" parent="1" vertex="1">
          <mxGeometry x="1000" y="455" width="30.32" height="28.74" as="geometry" />
        </mxCell>
        <mxCell id="4FbvwkBjKiS7Si-nqhsU-169" value="&lt;span style=&quot;font-size: 14px&quot;&gt;DELAY_M&lt;/span&gt;" style="text;html=1;strokeColor=none;fillColor=none;align=center;verticalAlign=middle;whiteSpace=wrap;rounded=0;labelBackgroundColor=none;fontSize=14;fontColor=#BCBDD0;fontStyle=2" vertex="1" parent="1">
          <mxGeometry x="160" y="480" width="79.64" height="40" as="geometry" />
        </mxCell>
        <mxCell id="4FbvwkBjKiS7Si-nqhsU-170" value="" style="endArrow=classic;html=1;rounded=0;fontSize=14;fontColor=#BCBDD0;entryX=0.003;entryY=0.598;entryDx=0;entryDy=0;strokeColor=#bcbdd0;strokeWidth=3;exitX=1;exitY=0.5;exitDx=0;exitDy=0;entryPerimeter=0;" edge="1" parent="1" source="4FbvwkBjKiS7Si-nqhsU-169">
          <mxGeometry width="50" height="50" relative="1" as="geometry">
            <mxPoint x="249.14" y="508.74" as="sourcePoint" />
            <mxPoint x="559.9999999999999" y="499.0465199999999" as="targetPoint" />
          </mxGeometry>
        </mxCell>
      </root>
    </mxGraphModel>
  </diagram>
</mxfile>
